<?xml version="1.0" encoding="UTF-8"?>
<svg width="145px" height="24px" viewBox="0 0 145 24" version="1.1" xmlns="http://www.w3.org/2000/svg" xmlns:xlink="http://www.w3.org/1999/xlink">
    <!-- Generator: Sketch 50.2 (55047) - http://www.bohemiancoding.com/sketch -->
    <title>Desktop HD</title>
    <desc>Created with Sketch.</desc>
    <defs>
        <polygon id="path-1" points="0.0508833922 0.074204947 40.1207067 0.074204947 40.1207067 17.4648763 0.0508833922 17.4648763"></polygon>
    </defs>
    <g id="Desktop-HD" stroke="none" stroke-width="1" fill="none" fill-rule="evenodd">
        <g id="Group">
            <path d="M25.3620636,2.20850883 C26.2772862,2.20850883 27.0281555,2.96726502 27.0281555,3.89198587 C27.0281555,4.81679152 26.2772862,5.57529329 25.3620636,5.57529329 C24.4463322,5.57529329 23.6954629,4.81679152 23.6954629,3.89198587 C23.6954629,2.96726502 24.4463322,2.20850883 25.3620636,2.20850883 M24.5868551,19.1140071 L24.5868551,9.86662898 C24.5868551,9.60610601 24.4933145,9.51129329 24.2350813,9.51129329 L23.4840424,9.51129329 L23.4840424,7.25834629 L24.7282261,7.25834629 C26.3710813,7.25834629 26.9344452,7.89871378 26.9344452,9.44031095 L26.9344452,19.1140071 L24.5868551,19.1140071" id="Fill-1" fill="#0E1C3F"></path>
            <path d="M32.0350813,7.25868551 L32.199265,8.72870671 C33.2082827,7.75674912 34.3585018,7.09289046 35.7433781,7.09289046 C37.5506714,7.09289046 39.123053,8.08901767 39.123053,10.602318 L39.123053,19.1136678 L36.7756325,19.1136678 L36.7756325,10.62547 C36.7756325,9.70091873 36.3302332,9.34532862 35.4619081,9.34532862 C34.335265,9.34532862 33.0443534,10.2466431 32.199265,11.3132438 L32.199265,19.1136678 L29.8523534,19.1136678 L29.8523534,7.25868551 L32.0350813,7.25868551" id="Fill-2" fill="#0E1C3F"></path>
            <path d="M45.8553498,19.0665159 C45.3389682,19.2088198 44.8696537,19.2795477 44.4479152,19.2795477 C42.710417,19.2795477 41.9123958,18.2366078 41.9123958,16.1738799 L41.9123958,1.73453004 L44.259477,1.73453004 L44.259477,16.1263887 C44.259477,16.7900777 44.6353357,17.0272792 45.1048198,17.0272792 C45.2922403,17.0272792 45.5036608,17.0035336 45.7148269,16.932636 L45.8553498,19.0665159" id="Fill-3" fill="#0E1C3F"></path>
            <path d="M55.3060919,13.6133428 L55.3060919,12.7597739 C55.3060919,10.7916042 54.3438021,9.3450742 52.3958163,9.3450742 C50.448,9.3450742 49.4852862,10.7916042 49.4852862,12.7597739 L49.4852862,13.6133428 C49.4852862,15.5811731 50.448,17.0271095 52.3958163,17.0271095 C54.3438021,17.0271095 55.3060919,15.5811731 55.3060919,13.6133428 M47.0911378,13.7080707 L47.0911378,12.6648763 C47.0911378,9.70091873 48.5702332,7.09280565 52.3958163,7.09280565 C56.2219929,7.09280565 57.7005795,9.70091873 57.7005795,12.6648763 L57.7005795,13.7080707 C57.7005795,16.6718587 56.2219929,19.2796325 52.3958163,19.2796325 C48.5702332,19.2796325 47.0911378,16.6718587 47.0911378,13.7080707" id="Fill-4" fill="#0E1C3F"></path>
            <path d="M68.0187986,18.3550813 C66.8685795,19.0431943 65.7888339,19.2797173 64.5918869,19.2797173 C61.4937668,19.2797173 59.3577668,17.4071237 59.3577668,14.1347279 L59.3577668,12.4509965 C59.3577668,9.15561837 61.3532438,7.09289046 64.8501201,7.09289046 C65.7888339,7.09289046 66.7746148,7.30634629 67.7840565,7.70925795 L67.5259081,9.89037456 C66.6806502,9.53486926 65.8121555,9.34532862 64.9910671,9.34532862 C63.1835194,9.34532862 61.7051025,10.2938799 61.7051025,12.4749965 L61.7051025,13.9687633 C61.7051025,16.0789823 63.0428269,17.0271095 64.5918869,17.0271095 C65.7181908,17.0271095 66.8215972,16.6721131 67.7369046,16.0314912 L68.0187986,18.3550813" id="Fill-5" fill="#0E1C3F"></path>
            <g id="Group-9">
                <path d="M77.7970601,13.6133428 L77.7970601,12.7597739 C77.7970601,10.7916042 76.8347703,9.3450742 74.8870389,9.3450742 C72.9389682,9.3450742 71.9762544,10.7916042 71.9762544,12.7597739 L71.9762544,13.6133428 C71.9762544,15.5811731 72.9389682,17.0271095 74.8870389,17.0271095 C76.8347703,17.0271095 77.7970601,15.5811731 77.7970601,13.6133428 M69.5821908,13.7080707 L69.5821908,12.6648763 C69.5821908,9.70091873 71.060947,7.09280565 74.8870389,7.09280565 C78.7127915,7.09280565 80.1914629,9.70091873 80.1914629,12.6648763 L80.1914629,13.7080707 C80.1914629,16.6718587 78.7127915,19.2796325 74.8870389,19.2796325 C71.060947,19.2796325 69.5821908,16.6718587 69.5821908,13.7080707" id="Fill-6" fill="#0E1C3F"></path>
                <path d="M12.0131449,12.1707138 L9.37229682,13.2759859 L6.73127915,12.1707138 L5.63737102,9.50306714 L6.73127915,6.83542049 L9.37229682,5.73014841 L12.0131449,6.83542049 L13.107053,9.50306714 L12.0131449,12.1707138 Z M15.4894982,2.30527208 L9.37229682,0.0563957597 L3.2550106,2.30527208 L0,7.84036749 L1.13028975,14.4767491 L9.37229682,21.4995053 L17.6140495,14.4767491 L18.7445936,7.84036749 L15.4894982,2.30527208 Z" id="Fill-8" fill="#3A72FB"></path>
            </g>
            <path d="M84.0363816,12.9535548 L90.7420495,12.9535548 C90.7886926,12.6468127 90.8124382,12.3400707 90.8124382,12.0565654 C90.8124382,9.48381625 89.340212,8.13845936 87.7509541,8.13845936 C85.8818375,8.13845936 84.2232085,9.76732155 84.0363816,12.9535548 M84.0363816,13.9449329 C84.153159,16.7302898 85.484947,18.2877456 88.0316608,18.2877456 C88.919576,18.2877456 89.8074912,18.0045795 90.9057244,17.5089753 L91.0456537,18.5238445 C89.9940636,19.0431943 88.9662191,19.2792085 88.0316608,19.2792085 C84.6435901,19.2792085 82.9848763,16.9898799 82.9848763,13.5438021 C82.9848763,9.29512367 85.2508834,7.14699647 87.7746996,7.14699647 C89.8778799,7.14699647 91.8640283,8.79934982 91.8640283,12.0565654 C91.8640283,12.6468127 91.7936396,13.284212 91.6299647,13.9449329 L84.0363816,13.9449329" id="Fill-10" fill="#0E1C3F"></path>
            <g id="Group-16" transform="translate(94.219081, 6.530035)">
                <mask id="mask-2" fill="white">
                    <use xlink:href="#path-1"></use>
                </mask>
                <g id="Clip-12"></g>
                <path d="M1.1024735,12.5839717 L0.0508833922,12.5839717 L0.0508833922,0.78224735 L0.98459364,0.78224735 L1.1024735,3.11898233 C2.05992933,1.91525088 3.60254417,0.616876325 5.33088339,0.616876325 C6.92014134,0.616876325 8.25159011,1.49062898 8.25159011,3.66207774 L8.25159011,12.5839717 L7.2,12.5839717 L7.2,3.66207774 C7.2,2.24573852 6.56904594,1.60825442 5.33088339,1.60825442 C3.76537102,1.60825442 2.08367491,3.07208481 1.1024735,4.32271378 L1.1024735,12.5839717" id="Fill-11" fill="#0E1C3F" mask="url(#mask-2)"></path>
                <path d="M14.7697527,7.57992933 C16.5930742,7.57992933 17.6675618,6.32921555 17.6675618,4.62962544 C17.6675618,2.93012014 16.5930742,1.60825442 14.7697527,1.60825442 C12.9481272,1.60825442 11.8965371,2.93012014 11.8965371,4.62962544 C11.8965371,6.32921555 12.9481272,7.57992933 14.7697527,7.57992933 M14.7697527,0.617045936 C15.9612721,0.617045936 16.9433216,1.06566784 17.6209187,1.75004947 C17.7608481,1.5375265 17.8312367,1.30151237 17.9007774,1.06566784 L18.134841,0.074204947 L19.1864311,0.074204947 L18.9286219,1.18380212 C18.7886926,1.79728622 18.6021201,2.1749258 18.1577385,2.48217668 C18.5079859,3.09540636 18.7191519,3.82727915 18.7191519,4.62962544 C18.7191519,6.91920848 17.2002827,8.57147703 14.7697527,8.57147703 C14.3262191,8.57147703 13.9284806,8.5244947 13.5553357,8.42985159 C12.7836042,8.78383039 12.48,9.27943463 12.48,9.94040989 L12.48,10.176424 C12.48,10.9080424 12.8777385,11.2622756 13.8351943,11.2622756 L16.124947,11.2622756 C18.2281272,11.2622756 19.4900353,12.4422615 19.4900353,14.09453 L19.4900353,14.4485088 C19.4900353,16.5257385 17.5038869,17.4699647 15.0275618,17.4699647 C12.5037456,17.4699647 10.6575265,16.4076042 10.6575265,14.2361555 L10.6575265,13.6459081 L11.7091166,13.6459081 L11.7091166,14.2361555 C11.7091166,15.7469682 12.9947703,16.4787562 15.0275618,16.4787562 C16.9899647,16.4787562 18.4384452,15.8177809 18.4384452,14.4012721 L18.4384452,14.1655124 C18.4384452,13.0326784 17.8778799,12.2533993 16.124947,12.2533993 L13.8351943,12.2533993 C12.3171731,12.2533993 11.429258,11.4273074 11.429258,10.1531873 L11.429258,9.98756184 C11.429258,9.13780919 11.8727915,8.42985159 12.6436749,8.05221201 C11.4987986,7.39149117 10.844947,6.14035336 10.844947,4.62962544 C10.844947,2.36378799 12.3400707,0.617045936 14.7697527,0.617045936" id="Fill-13" fill="#0E1C3F" mask="url(#mask-2)"></path>
                <path d="M24.630106,6.8955477 C22.5973145,7.03717314 21.7560424,8.19375265 21.7560424,9.4919576 C21.7560424,10.6721979 22.3395053,11.7577102 23.8821201,11.7577102 C25.3543463,11.7577102 26.8961131,10.9554488 27.8306714,10.0583746 L27.8306714,6.65953357 L24.630106,6.8955477 Z M27.8306714,11.0733286 C26.8961131,12.01747 25.3543463,12.7491731 23.8821201,12.7491731 C21.6856537,12.7491731 20.7044523,11.1678869 20.7044523,9.51587279 C20.7044523,7.69840283 21.8722261,6.09286219 24.6063604,5.90416961 L27.8306714,5.69164664 L27.8306714,4.32262898 C27.8306714,2.2455689 26.3355477,1.60833922 24.7937809,1.60833922 C23.6718021,1.60833922 22.5031802,1.96231802 21.5219788,2.34021201 L21.4057951,1.32534276 C22.5269258,0.853229682 23.7413428,0.616961131 24.840424,0.616961131 C26.9665018,0.616961131 28.8822615,1.65583039 28.8822615,4.25215548 L28.8822615,12.5840565 L27.9477032,12.5840565 L27.8306714,11.0733286 Z" id="Fill-14" fill="#0E1C3F" mask="url(#mask-2)"></path>
                <path d="M35.400424,7.57992933 C37.2228975,7.57992933 38.2982332,6.32921555 38.2982332,4.62962544 C38.2982332,2.93012014 37.2228975,1.60825442 35.400424,1.60825442 C33.5779505,1.60825442 32.5263604,2.93012014 32.5263604,4.62962544 C32.5263604,6.32921555 33.5779505,7.57992933 35.400424,7.57992933 M35.400424,0.617045936 C36.5919435,0.617045936 37.5731449,1.06566784 38.250742,1.75004947 C38.3915194,1.5375265 38.4610601,1.30151237 38.5314488,1.06566784 L38.7655124,0.074204947 L39.8162544,0.074204947 L39.5592933,1.18380212 C39.419364,1.79728622 39.2327915,2.1749258 38.7884099,2.48217668 C39.1386572,3.09540636 39.3489753,3.82727915 39.3489753,4.62962544 C39.3489753,6.91920848 37.830106,8.57147703 35.400424,8.57147703 C34.9568905,8.57147703 34.5591519,8.5244947 34.1860071,8.42985159 C33.4142756,8.78383039 33.1106714,9.27943463 33.1106714,9.94040989 L33.1106714,10.176424 C33.1106714,10.9080424 33.5084099,11.2622756 34.4658657,11.2622756 L36.7556184,11.2622756 C38.8587986,11.2622756 40.1207067,12.4422615 40.1207067,14.09453 L40.1207067,14.4485088 C40.1207067,16.5257385 38.1345583,17.4699647 35.6573852,17.4699647 C33.134417,17.4699647 31.2881979,16.4076042 31.2881979,14.2361555 L31.2881979,13.6459081 L32.339788,13.6459081 L32.339788,14.2361555 C32.339788,15.7469682 33.6245936,16.4787562 35.6573852,16.4787562 C37.620636,16.4787562 39.0691166,15.8177809 39.0691166,14.4012721 L39.0691166,14.1655124 C39.0691166,13.0326784 38.5077032,12.2533993 36.7556184,12.2533993 L34.4658657,12.2533993 C32.9469965,12.2533993 32.0590813,11.4273074 32.0590813,10.1531873 L32.0590813,9.98756184 C32.0590813,9.13780919 32.5034629,8.42985159 33.2743463,8.05221201 C32.12947,7.39149117 31.4756184,6.14035336 31.4756184,4.62962544 C31.4756184,2.36378799 32.970742,0.617045936 35.400424,0.617045936" id="Fill-15" fill="#0E1C3F" mask="url(#mask-2)"></path>
            </g>
            <path d="M136.511661,12.9535548 L143.217244,12.9535548 C143.264735,12.6468127 143.287633,12.3400707 143.287633,12.0565654 C143.287633,9.48381625 141.815406,8.13845936 140.226996,8.13845936 C138.35788,8.13845936 136.698233,9.76732155 136.511661,12.9535548 M136.511661,13.9449329 C136.628693,16.7302898 137.960141,18.2877456 140.506855,18.2877456 C141.39477,18.2877456 142.282686,18.0045795 143.380919,17.5089753 L143.520848,18.5238445 C142.470106,19.0431943 141.442261,19.2792085 140.506855,19.2792085 C137.118869,19.2792085 135.460919,16.9898799 135.460919,13.5438021 C135.460919,9.29512367 137.726926,7.14699647 140.250742,7.14699647 C142.353074,7.14699647 144.339223,8.79934982 144.339223,12.0565654 C144.339223,12.6468127 144.268834,13.284212 144.105159,13.9449329 L136.511661,13.9449329" id="Fill-17" fill="#0E1C3F"></path>
        </g>
    </g>
</svg>