<?xml version="1.0" encoding="UTF-8"?>
<svg width="88px" height="24px" viewBox="0 0 88 24" version="1.1" xmlns="http://www.w3.org/2000/svg" xmlns:xlink="http://www.w3.org/1999/xlink">
    <!-- Generator: sketchtool 54.1 (76490) - https://sketchapp.com -->
    <title>0B194580-BCE4-48CA-B875-68AA650DA990</title>
    <desc>Created with sketchtool.</desc>
    <g id="Mobile" stroke="none" stroke-width="1" fill="none" fill-rule="evenodd">
        <g id="Sign-In@mobile" transform="translate(-144.000000, -32.000000)" fill="#031D30" fill-rule="nonzero">
            <g id="logo-in-loco" transform="translate(144.000000, 32.000000)">
                <g id="Group" transform="translate(25.635854, 1.964194)">
                    <path d="M1.18319328,18.8071611 L1.18319328,8.88797954 C1.18319328,8.59335038 1.08459384,8.49514066 0.788795518,8.49514066 L0,8.49514066 L0,6.08900256 L1.33109244,6.08900256 C3.10588235,6.08900256 3.74677871,6.77647059 3.74677871,8.44603581 L3.74677871,18.8071611 L1.18319328,18.8071611 Z M2.02128852,0.687468031 C3.00728291,0.687468031 3.84537815,1.52225064 3.84537815,2.50434783 C3.84537815,3.48644501 3.00728291,4.32122762 2.02128852,4.32122762 C1.03529412,4.32122762 0.19719888,3.48644501 0.19719888,2.50434783 C0.19719888,1.52225064 1.03529412,0.687468031 2.02128852,0.687468031 Z" id="Shape"></path>
                    <path d="M9.26834734,6.08900256 L9.46554622,7.66035806 C10.5501401,6.62915601 11.8319328,5.89258312 13.3109244,5.89258312 C15.2829132,5.89258312 17.0084034,6.97289003 17.0084034,9.67365729 L17.0084034,18.8071611 L14.4448179,18.8071611 L14.4448179,9.72276215 C14.4448179,8.74066496 13.9518207,8.34782609 13.0151261,8.34782609 C11.7826331,8.34782609 10.4022409,9.32992327 9.46554622,10.459335 L9.46554622,18.8071611 L6.90196078,18.8071611 L6.90196078,6.08900256 L9.26834734,6.08900256 Z" id="Path"></path>
                    <path d="M24.3047619,18.7580563 C23.762465,18.9053708 23.2201681,19.0035806 22.7764706,19.0035806 C20.9030812,19.0035806 20.0156863,17.8741688 20.0156863,15.6644501 L20.0156863,0.196419437 L22.5792717,0.196419437 L22.5792717,15.6153453 C22.5792717,16.3028133 22.9736695,16.5974425 23.5159664,16.5974425 C23.7131653,16.5974425 23.9596639,16.5483376 24.1568627,16.4992327 L24.3047619,18.7580563 Z" id="Path"></path>
                    <path d="M25.6358543,13.0127877 L25.6358543,11.883376 C25.6358543,8.6915601 27.2627451,5.89258312 31.4039216,5.89258312 C35.545098,5.89258312 37.1719888,8.6915601 37.1719888,11.883376 L37.1719888,13.0127877 C37.1719888,16.2046036 35.545098,19.0035806 31.4039216,19.0035806 C27.2627451,19.0035806 25.6358543,16.2046036 25.6358543,13.0127877 Z M34.6084034,12.914578 L34.6084034,11.9815857 C34.6084034,9.87007673 33.5731092,8.29872123 31.4532213,8.29872123 C29.3333333,8.29872123 28.2980392,9.87007673 28.2980392,11.9815857 L28.2980392,12.914578 C28.2980392,15.026087 29.3333333,16.5974425 31.4532213,16.5974425 C33.5238095,16.5974425 34.6084034,15.026087 34.6084034,12.914578 Z" id="Shape"></path>
                    <path d="M48.4123249,17.9723785 C47.1798319,18.7089514 45.9966387,18.9544757 44.6655462,18.9544757 C41.3131653,18.9544757 38.9960784,16.9411765 38.9960784,13.4547315 L38.9960784,11.6378517 C38.9960784,8.10230179 41.1652661,5.89258312 44.9613445,5.89258312 C45.9966387,5.89258312 47.0319328,6.13810742 48.1658263,6.53094629 L47.870028,8.88797954 C46.9333333,8.49514066 45.9966387,8.29872123 45.1092437,8.29872123 C43.1372549,8.29872123 41.5596639,9.32992327 41.5596639,11.6378517 L41.5596639,13.258312 C41.5596639,15.5171355 43.0386555,16.5483376 44.7148459,16.5483376 C45.9473389,16.5483376 47.1305322,16.1554987 48.1165266,15.4680307 L48.4123249,17.9723785 Z" id="Path"></path>
                    <path d="M50.1378151,13.0127877 L50.1378151,11.883376 C50.1378151,8.6915601 51.7647059,5.89258312 55.9058824,5.89258312 C60.0470588,5.89258312 61.6739496,8.6915601 61.6739496,11.883376 L61.6739496,13.0127877 C61.6739496,16.2046036 60.0470588,19.0035806 55.9058824,19.0035806 C51.7154062,19.0035806 50.1378151,16.2046036 50.1378151,13.0127877 Z M59.0610644,12.914578 L59.0610644,11.9815857 C59.0610644,9.87007673 58.0257703,8.29872123 55.9058824,8.29872123 C53.7859944,8.29872123 52.7507003,9.87007673 52.7507003,11.9815857 L52.7507003,12.914578 C52.7507003,15.026087 53.7859944,16.5974425 55.9058824,16.5974425 C57.9764706,16.5974425 59.0610644,15.026087 59.0610644,12.914578 Z" id="Shape"></path>
                </g>
                <path d="M16.9098039,2.74987212 L10.2543417,0.343734015 L3.59887955,2.74987212 L0.0985994398,8.6915601 L1.33109244,15.8117647 L10.3036415,23.3248082 L19.2268908,15.8117647 L20.4593838,8.6915601 L16.9098039,2.74987212 Z M13.1630252,13.3074169 L10.3036415,14.4859335 L10.3036415,14.4859335 L10.3036415,14.4859335 L7.39495798,13.3074169 L6.21176471,10.459335 L7.39495798,7.6112532 L10.2543417,6.43273657 L13.1137255,7.6112532 L14.2969188,10.459335 L13.1630252,13.3074169 Z" id="Shape"></path>
            </g>
        </g>
    </g>
</svg>